{"title":"Discover Microsoft Windows 7 (dvdripmp4)","uid":8388750,"size":3981340528,"categoryP":"video","categoryS":"other","magnet":"?xt=urn:btih:9893ddc59879557cfcd92b379ba164020e91f7e5&amp;dn=Discover+Microsoft+Windows+7+%28dvdripmp4%29&amp;tr=udp%3A%2F%2Ftracker.openbittorrent.com%3A80&amp;tr=udp%3A%2F%2Fopen.demonii.com%3A1337&amp;tr=udp%3A%2F%2Ftracker.coppersurfer.tk%3A6969&amp;tr=udp%3A%2F%2Fexodus.desync.com%3A6969","seeders":2,"leechers":1,"uploader":"russell887","files":2,"time":1366358924,"description":"DISCOVER WINDOWS 7 from Technology Skills is a rich,multimedia learning tool for users of Microsoft\nWindows 7.With Windows 7 everyday tasks are simpler.Learn how to scan all your open windows with live \ntaskbar previews.Find a file,connect to a network or use snap to arrange a couple of windows side by side-\nall in just a few clicks.You will also become skilled at having your PC work the way you want.\nPersonalize your computer with fast sleep and Resume features,and use more of your older programs in Windows\nXP mode.Plus,you will find out how to do new things like using a touch-screen instead of a mouse,\nconnecting to printers fast,and using your PC to record live TV or watch internet TV.\n\nDisc #1-Level 1 (Duration-133 minutes)\n1. Exploring Windows 7\n\n    Desktop Enhancements\n    Navigating The Start Menu And Windows\n    Using The Taskbar\n    Using Libraries\n    Accessing Help\n\n2. Working With Windows Explorer and Folders\n\n    Windows Explorer in Windows7\n    Navigation with Windows Explorer\n    Folder Options\n    How To Manage File And Folders\n    Search Capabilities\n\n3. Customizing Windows 7\n\n    Customizing Windows Operating System\n    How To Customize A Taskbar And Notification\n    How To Customize Settings Of Windows 7 Desktop\n    Using Desktop Gadget\n    Libraries Functionality\n\n4. Using Control Panel\n\n    Understanding Control Panel Views\n    Configuring Mouse And Sound Settings\n    Creating And Managing User Accounts\n    User Account Control\n    Adding And Removing Programs\n\n5. Networking With Windows 7\n\n    Creating And Managing Home Groups\n    Sharing Resources\n    Using Internet Explorer 8\n\n\n \n\nDisc #2-Level 2   (Duration-108 minutes)\n1. Configuring Hardware Devices\n\n    Installing Hardware Devices\n    Working With Flash Drives\n    Installing Printers\n    Print Queue\n\n2. Backing Up And Restoring Files\n\n    Using Windows Backup\n    Using Shadow Copies\n    Using System Restore\n\n3. Security In Windows 7\n\n    Configuring The Windows Firewall\n    Using Windows Update\n    Using Antispyware And Antivirus Software\n    Family Safety\n\n4. Configuring Internet Explorer 8\n\n    Configuring Browser Settings\n    Configuring Browser Security\n\n5. Customizing Networks\n\n    Configuring And Customizing Networking\n    Advanced Sharing Permission And Setting\n    Network And Sharing Center\n    Troubleshooting Network Connectivity Problems    \n\nINFO: \n\nFormat                                   : MPEG-4\nFormat profile                           : Base Media / Version 2\nCodec ID                                 : mp42 \nOverall bit rate mode                    : Variable\nOverall bit rate                         : 2 052 Kbps \n\nVideo\nID                                       : 1\nFormat                                   : AVC\nFormat/Info                              : Advanced Video Codec\nFormat profile                           : &lt;a class=&quot;__cf_email__&quot; href=&quot;/cdn-cgi/l/email-protection&quot; data-cfemail=&quot;286549414668641b0618&quot;&gt;[email&amp;#160;protected]&lt;/a&gt;&lt;script cf-hash='f9e31' type=&quot;text/javascript&quot;&gt;\n/* &lt;![CDATA[ */!function(){try{var t=&quot;currentScript&quot;in document?document.currentScript:function(){for(var t=document.getElementsByTagName(&quot;script&quot;),e=t.length;e--;)if(t[e].getAttribute(&quot;cf-hash&quot;))return t[e]}();if(t&amp;&amp;t.previousSibling){var e,r,n,i,c=t.previousSibling,a=c.getAttribute(&quot;data-cfemail&quot;);if(a){for(e=&quot;&quot;,r=parseInt(a.substr(0,2),16),n=2;a.length-n;n+=2)i=parseInt(a.substr(n,2),16)^r,e+=String.fromCharCode(i);e=document.createTextNode(e),c.parentNode.replaceChild(e,c)}}}catch(u){}}();/* ]]&gt; */&lt;/script&gt;\nFormat settings, CABAC                   : Yes\nFormat settings, ReFrames                : 2 frames\nCodec ID                                 : avc1\nCodec ID/Info                            : Advanced Video Coding \nBit rate mode                            : Variable\nBit rate                                 : 1 864 Kbps\nMaximum bit rate                         : 8 557 Kbps\nWidth                                    : 720 pixels\nHeight                                   : 480 pixels\nDisplay aspect ratio                     : 4:3\nOriginal display aspect ratio            : 4:3\nFrame rate mode                          : Constant\nFrame rate                               : 29.970 fps\nStandard                                 : NTSC\nColor space                              : YUV\nChroma subsampling                       : 4:2:0\nBit depth                                : 8 bits\nScan type                                : Progressive\nBits/(Pixel*Frame)                       : 0.180\nStream size                              : 1.96 GiB (91%)\nLanguage                                 : English \n\nAudio\nID                                       : 2\nFormat                                   : AAC\nFormat/Info                              : Advanced Audio Codec\nFormat profile                           : LC\nCodec ID                                 : 40 \nBit rate mode                            : Variable\nBit rate                                 : 184 Kbps\nMaximum bit rate                         : 221 Kbps\nChannel(s)                               : 2 channels\nChannel positions                        : Front: L R\nSampling rate                            : 48.0 KHz\nCompression mode                         : Lossy\nStream size                              : 198 MiB (9%)\nLanguage                                 : English \n\nSIZE: 3.70GB  ","torrent":{"xt":"urn:btih:9893ddc59879557cfcd92b379ba164020e91f7e5","amp;dn":"Discover+Microsoft+Windows+7+%28dvdripmp4%29","amp;tr":["udp%3A%2F%2Ftracker.openbittorrent.com%3A80","udp%3A%2F%2Fopen.demonii.com%3A1337","udp%3A%2F%2Ftracker.coppersurfer.tk%3A6969","udp%3A%2F%2Fexodus.desync.com%3A6969"],"infoHash":"9893ddc59879557cfcd92b379ba164020e91f7e5","infoHashBuffer":{"type":"Buffer","data":[152,147,221,197,152,121,85,124,252,217,43,55,155,161,100,2,14,145,247,229]},"announce":[],"urlList":[]}}